# Blender v2.75 (sub 0) OBJ File: 'levelcollision_rdy.blend'
# www.blender.org
mtllib collision.mtl
o Plane.007
v -2.000000 -0.000000 0.000001
v -2.000000 -0.000000 1.000001
v -2.000000 1.500000 1.000000
v -2.000000 1.500000 0.000001
v -3.000000 0.000000 1.000000
v -3.000000 0.000000 0.000000
v -2.800000 0.000000 0.000000
v -2.800000 0.000000 1.000000
v -2.200000 0.000000 0.000000
v -2.200000 0.000000 1.000000
v -2.800000 0.000000 0.100000
v -2.200000 0.000000 0.100000
v -2.800000 0.000000 0.900000
v -2.200000 0.000000 0.900000
v -3.000000 1.500000 1.000000
v -3.000000 1.500000 0.000000
v -2.800000 1.500000 0.000000
v -2.800000 1.500000 1.000000
v -2.200000 1.500000 0.000000
v -2.200000 1.500000 1.000000
v -2.800000 1.050000 0.000000
v -2.800000 1.050000 1.000000
v -2.200000 1.050000 0.000000
v -2.200000 1.050000 1.000000
v -2.200000 1.050000 0.900000
v -2.200000 1.050000 0.100000
v -2.800000 1.050000 0.100000
v -2.800000 1.050000 0.900000
v -2.200000 1.200000 0.800000
v -2.200000 1.200000 0.200000
v -2.800000 1.200000 0.200000
v -2.800000 1.200000 0.800000
v -2.200000 1.300000 0.400000
v -2.800000 1.300000 0.400000
v -2.200000 1.300000 0.600000
v -2.800000 1.300000 0.600000
v -2.200000 1.500000 0.900000
v -2.200000 1.500000 0.100000
v -2.800000 1.500000 0.100000
v -2.800000 1.500000 0.900000
v -2.200000 1.500000 0.800000
v -2.200000 1.500000 0.200000
v -2.800000 1.500000 0.200000
v -2.800000 1.500000 0.800000
v -2.200000 1.500000 0.400000
v -2.800000 1.500000 0.400000
v -2.200000 1.500000 0.600000
v -2.800000 1.500000 0.600000
vt 0.000000 0.000000
vn 0.000000 -1.000000 0.000000
vn 0.000000 0.000000 -1.000000
vn 0.000000 0.000000 1.000000
vn 0.000000 1.000000 0.000000
vn 0.000000 -0.554700 0.832100
vn 0.000000 -0.894400 0.447200
vn 0.000000 -0.894400 -0.447200
vn 0.000000 -0.554700 -0.832100
vn -1.000000 0.000000 0.000000
vn 1.000000 0.000000 0.000000
usemtl None
s off
f 18/1/1 15/1/1 16/1/1 17/1/1
f 5/1/2 15/1/2 18/1/2 8/1/2
f 7/1/3 17/1/3 16/1/3 6/1/3
f 8/1/4 7/1/4 6/1/4 5/1/4
f 11/1/4 13/1/4 14/1/4 12/1/4
f 14/1/2 13/1/2 28/1/2 25/1/2
f 11/1/3 12/1/3 26/1/3 27/1/3
f 26/1/5 30/1/5 31/1/5 27/1/5
f 31/1/6 30/1/6 33/1/6 34/1/6
f 33/1/1 35/1/1 36/1/1 34/1/1
f 29/1/7 32/1/7 36/1/7 35/1/7
f 28/1/8 32/1/8 29/1/8 25/1/8
f 18/1/9 40/1/9 28/1/9 22/1/9
f 8/1/9 22/1/9 28/1/9 13/1/9
f 32/1/9 28/1/9 40/1/9 44/1/9
f 36/1/9 32/1/9 44/1/9 48/1/9
f 36/1/9 48/1/9 46/1/9 34/1/9
f 31/1/9 34/1/9 46/1/9 43/1/9
f 27/1/9 31/1/9 43/1/9 39/1/9
f 17/1/9 21/1/9 27/1/9 39/1/9
f 7/1/9 11/1/9 27/1/9 21/1/9
f 9/1/10 23/1/10 26/1/10 12/1/10
f 19/1/10 38/1/10 26/1/10 23/1/10
f 30/1/10 26/1/10 38/1/10 42/1/10
f 33/1/10 30/1/10 42/1/10 45/1/10
f 35/1/10 33/1/10 45/1/10 47/1/10
f 29/1/10 35/1/10 47/1/10 41/1/10
f 25/1/10 29/1/10 41/1/10 37/1/10
f 24/1/10 25/1/10 37/1/10 20/1/10
f 10/1/10 14/1/10 25/1/10 24/1/10
f 3/1/2 2/1/2 10/1/2 20/1/2
f 3/1/1 20/1/1 19/1/1 4/1/1
f 4/1/3 19/1/3 9/1/3 1/1/3
f 1/1/4 9/1/4 10/1/4 2/1/4
o Plane.006
v -8.000000 0.000000 -2.000000
v -7.000000 0.000000 -3.000000
v -5.000000 0.000000 -3.000000
v -8.000000 0.000000 0.000000
v -7.000000 0.000000 0.000000
v -7.000000 0.000000 1.000000
v -8.000000 0.000000 1.000000
v -8.000000 0.000000 2.000000
v -6.000000 0.000000 2.000000
v -5.000000 0.000000 1.000000
v -3.000000 0.000000 1.000000
v -4.000000 0.000000 -2.000000
v -4.000000 0.000000 0.000000
v -3.000000 0.000000 0.000000
v -7.000000 1.500000 0.000000
v -8.000000 1.500000 0.000000
v -5.000000 1.500000 -3.000000
v -7.000000 1.500000 -3.000000
v -8.000000 1.500000 -2.000000
v -7.000000 1.500000 1.000000
v -8.000000 1.500000 1.000000
v -8.000000 1.500000 2.000000
v -6.000000 1.500000 2.000000
v -5.000000 1.500000 1.000000
v -3.000000 1.500000 1.000000
v -4.000000 1.500000 -2.000000
v -4.000000 1.500000 0.000000
v -3.000000 1.500000 0.000000
vt 0.000000 0.000000
vn 0.000000 0.000000 -1.000000
vn -0.707100 0.000000 -0.707100
vn 1.000000 0.000000 0.000000
vn 0.000000 0.000000 1.000000
vn 0.707100 0.000000 0.707100
vn -0.707100 0.000000 0.707100
vn -1.000000 0.000000 0.000000
vn 0.000000 1.000000 0.000000
vn 0.000000 -1.000000 0.000000
usemtl None
s off
f 58/2/11 72/2/11 73/2/11 59/2/11
f 57/2/12 71/2/12 72/2/12 58/2/12
f 56/2/11 70/2/11 71/2/11 57/2/11
f 55/2/13 69/2/13 70/2/13 56/2/13
f 54/2/14 68/2/14 69/2/14 55/2/14
f 53/2/13 63/2/13 68/2/13 54/2/13
f 52/2/11 64/2/11 63/2/11 53/2/11
f 49/2/13 67/2/13 64/2/13 52/2/13
f 50/2/15 66/2/15 67/2/15 49/2/15
f 51/2/14 65/2/14 66/2/14 50/2/14
f 60/2/16 74/2/16 65/2/16 51/2/16
f 61/2/17 75/2/17 74/2/17 60/2/17
f 62/2/14 76/2/14 75/2/14 61/2/14
f 59/2/18 62/2/18 61/2/18 58/2/18
f 50/2/18 49/2/18 52/2/18 53/2/18 61/2/18 60/2/18 51/2/18
f 53/2/18 54/2/18 58/2/18 61/2/18
f 56/2/18 57/2/18 58/2/18 55/2/18
f 68/2/19 63/2/19 75/2/19 72/2/19
f 70/2/19 69/2/19 72/2/19 71/2/19
f 66/2/19 65/2/19 74/2/19 75/2/19 63/2/19 64/2/19 67/2/19
f 73/2/19 72/2/19 75/2/19 76/2/19
o Plane.005
v 0.000000 3.500000 0.000000
v 0.000000 2.000000 0.000000
v 1.500000 2.000000 0.000000
v 2.000000 2.000000 0.500000
v 2.000000 2.000000 1.500000
v 2.500000 2.000000 2.000000
v 4.000000 2.000000 1.500000
v 3.500000 2.000000 3.000000
v 2.500000 2.000000 3.000000
v 1.500000 2.000000 3.000000
v 0.000000 2.000000 1.000000
v 0.500000 2.000000 1.000000
v 1.000000 2.000000 1.500000
v 1.000000 2.000000 2.500000
v 3.500000 2.000000 2.000000
v 4.000000 2.000000 3.500000
v 1.500000 3.500000 0.000000
v 2.000000 3.500000 0.500000
v 2.000000 3.500000 1.500000
v 2.500000 3.500000 2.000000
v 4.000000 3.500000 1.500000
v 3.500000 3.500000 3.000000
v 2.500000 3.500000 3.000000
v 1.500000 3.500000 3.000000
v 0.000000 3.500000 1.000000
v 0.500000 3.500000 1.000000
v 1.000000 3.500000 1.500000
v 1.000000 3.500000 2.500000
v 3.500000 3.500000 2.000000
v 4.000000 3.500000 3.500000
vt 0.607605 0.911382
vt 0.708851 0.911382
vt 0.708851 0.860770
vt 0.607605 0.860770
vt 0.911382 0.405073
vt 0.860770 0.405073
vt 0.860770 0.506319
vt 0.911382 0.506319
vt 0.506339 0.911382
vt 0.506339 0.860770
vt 0.936699 0.303807
vt 0.911402 0.303807
vt 0.936699 0.405053
vt 0.303787 0.911382
vt 0.303787 0.860770
vt 0.202542 0.860770
vt 0.202542 0.911382
vt 0.911382 0.202542
vt 0.860770 0.202542
vt 0.860770 0.303787
vt 0.000010 0.911382
vt 0.101256 0.911382
vt 0.101256 0.860770
vt 0.000010 0.860770
vt 0.860749 0.810117
vt 0.860749 0.708871
vt 0.810137 0.708871
vt 0.810137 0.810117
vt 0.708871 0.860749
vt 0.810117 0.860749
vt 0.708871 0.810137
vt 0.860749 0.202522
vt 0.860749 0.101276
vt 0.810137 0.101276
vt 0.810137 0.202522
vt 0.405053 0.860749
vt 0.405053 0.810137
vt 0.303807 0.810137
vt 0.303807 0.860749
vt 0.860749 0.000010
vt 0.810137 0.000010
vt 0.936729 0.354420
vt 0.987332 0.354420
vt 0.987332 0.303817
vt 0.000000 0.000000
vn 0.000000 0.000000 1.000000
vn 0.707100 0.000000 0.707100
vn 0.000000 0.000000 -1.000000
vn 0.707100 0.000000 -0.707100
vn 1.000000 0.000000 0.000000
vn -0.707100 0.000000 0.707100
vn -1.000000 0.000000 0.000000
vn 0.000000 1.000000 0.000000
vn 0.000000 -1.000000 0.000000
usemtl None_leveltexture.bmp
s off
f 91/3/20 105/4/20 96/5/20 82/6/20
f 91/7/21 83/8/21 97/9/21 105/10/21
f 86/11/22 100/3/22 99/6/22 85/12/22
f 88/13/22 87/14/22 101/7/22 102/15/22
f 89/16/23 88/17/23 102/18/23 103/19/23
f 90/20/24 89/21/24 103/22/24 104/14/24
f 80/23/25 94/24/25 93/25/25 79/26/25
f 90/27/23 104/28/23 100/29/23 86/30/23
f 81/31/26 95/32/26 94/30/26 80/33/26
f 82/34/25 96/35/25 95/36/25 81/37/25
f 92/38/23 84/39/23 98/40/23 106/41/23
f 85/35/22 99/42/22 98/43/22 84/36/22
f 86/44/27 85/45/27 82/46/27
usemtl None
f 80/33/27 79/26/27 88/13/27 89/16/27 81/47/27
f 79/47/27 78/47/27 87/47/27 88/13/27
f 81/16/27 89/20/27 90/30/27 86/46/27 82/37/27
f 82/45/27 85/36/27 84/47/27 91/6/27
f 79/25/20 93/47/20 77/47/20 78/47/20
f 102/47/28 101/7/28 77/47/28 93/47/28
f 94/32/28 95/22/28 103/18/28 102/47/28 93/24/28
f 96/35/28 105/4/28 98/47/28 100/47/28
f 95/47/28 96/35/28 100/47/28 104/28/28 103/22/28
f 98/4/28 105/9/28 97/47/28 106/40/28
f 84/47/27 92/38/27 83/47/27 91/7/27
o Plane.004
v 4.000000 2.000000 1.500000
v 4.000000 2.000000 0.000000
v 4.000000 2.000000 5.000000
v 4.000000 3.500000 5.000000
v 4.000000 3.500000 0.000000
v 4.000000 2.000000 3.500000
v 4.000000 3.500000 1.500000
v 4.000000 7.000000 0.000000
v 7.000000 7.000000 5.000000
v 4.000000 7.000000 5.000000
v 7.000000 7.000000 0.000000
v 8.000000 7.000000 1.000000
v 8.000000 7.000000 4.000000
v 4.000000 3.500000 3.500000
v 4.000000 -2.000000 0.000000
v 7.000000 -2.000000 5.000000
v 4.000000 -2.000000 5.000000
v 7.000000 -2.000000 0.000000
v 8.000000 -2.000000 1.000000
v 8.000000 -2.000000 4.000000
vt 0.000000 0.000000
vn -0.707100 0.000000 0.707100
vn -1.000000 0.000000 0.000000
vn -0.707100 0.000000 -0.707100
vn 0.000000 0.000000 -1.000000
vn 1.000000 0.000000 0.000000
vn 0.000000 0.000000 1.000000
usemtl None
s off
f 118/48/29 117/48/29 124/48/29 125/48/29
f 119/48/30 118/48/30 125/48/30 126/48/30
f 119/48/31 126/48/31 122/48/31 115/48/31
f 116/48/32 115/48/32 122/48/32 123/48/32
f 111/48/33 114/48/33 116/48/33 110/48/33
f 123/48/33 121/48/33 108/48/33 109/48/33
f 112/48/33 120/48/33 110/48/33 109/48/33
f 108/48/33 111/48/33 113/48/33 107/48/33
f 117/48/34 114/48/34 121/48/34 124/48/34
l 113 120
l 107 112
o Plane.003
v 4.000000 2.000000 1.500000
v 4.000000 2.000000 0.000000
v 4.000000 2.000000 5.000000
v 4.000000 3.500000 5.000000
v 4.000000 3.500000 0.000000
v 4.000000 2.000000 3.500000
v 4.000000 3.500000 1.500000
v 4.000000 7.000000 0.000000
v 7.000000 7.000000 5.000000
v 4.000000 7.000000 5.000000
v 7.000000 7.000000 0.000000
v 8.000000 7.000000 1.000000
v 8.000000 7.000000 4.000000
v 4.000000 3.500000 3.500000
v 4.000000 -2.000000 0.000000
v 7.000000 -2.000000 5.000000
v 4.000000 -2.000000 5.000000
v 7.000000 -2.000000 0.000000
v 8.000000 -2.000000 1.000000
v 8.000000 -2.000000 4.000000
l 127 128
l 141 143
l 129 132
l 134 137
l 138 139
l 137 138
l 135 136
l 135 139
l 127 133
l 133 140
l 130 129
l 140 132
l 127 132
l 141 144
l 145 146
l 144 145
l 142 143
l 142 146
l 129 143
l 134 136
l 130 140
l 133 131
l 144 137
l 134 141
l 145 138
l 146 139
l 142 135
l 143 136
o Plane.002_Plane.001
v 4.000000 2.000000 1.500000
v 4.000000 2.000000 0.000000
v 4.000000 2.000000 5.000000
v 4.000000 3.500000 5.000000
v 4.000000 3.500000 0.000000
v 4.000000 2.000000 3.500000
v 4.000000 3.500000 1.500000
v 4.000000 7.000000 0.000000
v 7.000000 7.000000 5.000000
v 4.000000 7.000000 5.000000
v 7.000000 7.000000 0.000000
v 8.000000 7.000000 1.000000
v 8.000000 7.000000 4.000000
v 4.000000 3.500000 3.500000
v 4.000000 -2.000000 0.000000
v 7.000000 -2.000000 5.000000
v 4.000000 -2.000000 5.000000
v 7.000000 -2.000000 0.000000
v 8.000000 -2.000000 1.000000
v 8.000000 -2.000000 4.000000
vt 0.000000 0.000000
vn 0.000000 1.000000 0.000000
vn 0.000000 -1.000000 0.000000
usemtl None
s off
f 163/49/35 162/49/35 166/49/35 165/49/35 164/49/35 161/49/35
f 157/49/36 158/49/36 159/49/36 155/49/36 156/49/36 154/49/36
l 147 148
l 149 152
l 147 153
l 153 160
l 150 149
l 160 152
l 147 152
l 149 163
l 156 150
l 161 148
l 150 160
l 153 151
l 164 157
l 154 161
l 165 158
l 166 159
l 162 155
l 163 156
o Plane.001_Plane.000
v -5.800000 0.000000 -2.000000
v -5.500000 0.000000 -1.700000
v -6.500000 0.000000 -1.300000
v -6.500000 0.000000 -1.700000
v -6.200000 0.000000 -2.000000
v -5.500000 0.000000 -1.300000
v -6.200000 0.000000 -1.000000
v -5.800000 0.000000 -1.000000
v -5.800000 1.500000 -2.000000
v -5.500000 1.500000 -1.700000
v -6.500000 1.500000 -1.300000
v -6.500000 1.500000 -1.700000
v -6.200000 1.500000 -2.000000
v -5.500000 1.500000 -1.300000
v -6.200000 1.500000 -1.000000
v -5.800000 1.500000 -1.000000
vt 0.101256 0.936699
vt 0.101256 0.911402
vt 0.000010 0.911402
vt 0.000010 0.936699
vt 0.936699 0.000010
vt 0.911402 0.000010
vt 0.911402 0.101256
vt 0.936699 0.101256
vt 0.911382 0.886066
vt 0.911382 0.860770
vt 0.810137 0.860770
vt 0.810137 0.886066
vt 0.936699 0.202542
vt 0.911402 0.202542
vt 0.911402 0.303787
vt 0.936699 0.303787
vt 0.354420 0.936699
vt 0.354420 0.911402
vt 0.253175 0.911402
vt 0.253175 0.936699
vt 0.936699 0.405073
vt 0.911402 0.405073
vt 0.911402 0.506319
vt 0.936699 0.506319
vt 0.455686 0.936699
vt 0.455686 0.911402
vt 0.911402 0.607585
vt 0.936699 0.607585
vn -0.707100 0.000000 0.707100
vn 0.707100 0.000000 -0.707100
vn 0.707100 0.000000 0.707100
vn -1.000000 0.000000 0.000000
vn -0.707100 0.000000 -0.707100
vn 0.000000 0.000000 1.000000
vn 0.000000 0.000000 -1.000000
vn 1.000000 0.000000 0.000000
usemtl None_leveltexture.bmp
s off
f 169/50/37 173/51/37 181/52/37 177/53/37
f 168/54/38 167/55/38 175/56/38 176/57/38
f 174/58/39 172/59/39 180/60/39 182/61/39
f 170/62/40 169/63/40 177/64/40 178/65/40
f 171/66/41 170/67/41 178/68/41 179/69/41
f 173/70/42 174/71/42 182/72/42 181/73/42
f 171/66/43 179/74/43 175/75/43 167/67/43
f 172/73/44 168/72/44 176/76/44 180/77/44
o Cube
v -5.200000 0.270000 -0.000000
v -5.200000 -0.000000 -0.000000
v -5.200000 0.270000 0.400000
v -5.200000 -0.000000 0.400000
v -6.000000 0.270000 -0.000000
v -6.000000 -0.000000 -0.000000
v -6.000000 0.270000 0.400000
v -6.000000 -0.000000 0.400000
vn -1.000000 0.000000 0.000000
vn 0.000000 0.000000 -1.000000
vn 1.000000 0.000000 0.000000
vn 0.000000 0.000000 1.000000
vn 0.000000 -1.000000 0.000000
usemtl None
s off
f 184//45 186//45 185//45 183//45
f 186//46 190//46 189//46 185//46
f 190//47 188//47 187//47 189//47
f 188//48 184//48 183//48 187//48
f 183//49 185//49 189//49 187//49
o Plane_Plane.002
v -2.000000 1.000000 -1.800000
v -1.000000 1.000000 -1.800000
v -2.000000 1.000000 -2.800000
v 0.000000 1.000000 -2.000000
v -2.000000 -0.000000 0.200001
v -1.000000 -0.000000 0.200001
v -2.000000 -0.000000 0.000001
v -1.000000 -0.000000 0.000001
v -2.000000 -0.000000 -0.499999
v -1.000000 -0.000000 -0.499999
v -2.000000 0.800000 -2.099999
v -1.000000 0.800000 -2.099999
v -2.000000 0.800000 -2.799999
v -1.000000 2.000000 0.000000
v -1.000000 2.000000 1.000000
v -1.000000 1.000000 -2.000000
v 0.000000 1.000000 -1.800000
v -2.000000 -0.000000 1.000001
v 0.000000 1.000000 -1.300000
v -1.000000 1.000000 -1.300000
v 0.000000 1.800000 0.300000
v -1.000000 1.800000 0.300000
v 0.000000 1.800000 1.000000
v -1.000000 1.800000 1.000000
v 0.000000 1.000000 -2.800000
v 0.000000 0.800000 -2.799999
v -1.000000 0.800000 -1.800000
v 0.000000 0.800000 -1.800000
v -2.000000 -0.000000 -2.799999
v 0.000000 -0.000000 -2.799999
v 0.000000 0.000000 1.000000
v 0.000000 0.000000 0.300000
v -2.000000 1.500000 1.000000
v -2.000000 3.500000 1.000000
v -2.000000 3.500000 0.000001
v -2.000000 1.500000 0.000001
v 0.000000 3.500000 0.000000
v 0.000000 3.500000 -2.800000
v -2.000000 3.500000 -2.800000
v 0.000000 2.000000 0.000000
v 0.000000 2.000000 1.000000
v 0.000000 3.500000 1.000000
vt 0.000000 0.000000
vn 1.000000 0.000000 0.000000
vn -0.000000 -0.000000 -1.000000
vn 0.000000 0.000000 1.000000
vn -1.000000 0.000000 0.000000
vn -0.000000 1.000000 -0.000000
vn 0.000000 -1.000000 0.000000
vn 0.000000 0.894400 -0.447200
vn 0.000000 -0.894400 0.447200
vn 0.000000 0.894400 0.447200
vn 0.000000 -0.894400 -0.447200
usemtl None
s off
f 224/78/50 223/78/50 226/78/50 225/78/50
f 221/78/51 208/78/51 224/78/51 232/78/51
f 229/78/50 225/78/50 197/78/50 219/78/50
f 219/78/52 220/78/52 228/78/52 229/78/52
f 228/78/53 220/78/53 230/78/53 227/78/53
f 221/78/53 231/78/53 230/78/53 220/78/53
f 208/78/54 221/78/54 220/78/54 219/78/54
f 228/78/55 232/78/55 224/78/55 229/78/55
f 193/78/54 191/78/54 207/78/54 215/78/54
f 206/78/56 204/78/56 230/78/56 194/78/56
f 204/78/54 205/78/54 231/78/54 230/78/54
f 212/78/53 204/78/53 206/78/53 192/78/53 210/78/53
f 204/78/53 212/78/53 214/78/53 205/78/53
f 212/78/54 214/78/54 213/78/54 211/78/54
f 210/78/57 209/78/57 211/78/57 212/78/57
f 209/78/55 210/78/55 192/78/55 207/78/55
f 216/78/55 218/78/55 217/78/55 202/78/55
f 202/78/55 201/78/55 203/78/55 216/78/55
f 218/78/52 207/78/52 192/78/52 217/78/52
f 192/78/58 191/78/58 195/78/58 196/78/58
f 198/78/50 200/78/50 202/78/50 192/78/50 196/78/50
f 200/78/59 199/78/59 201/78/59 202/78/59
l 195 197
l 197 199
l 203 219
l 216 220
l 199 219
l 213 221
l 221 222
l 220 222
l 193 229
l 215 228
l 197 226
l 231 232
l 208 223
